HIERARCHY
ROOT bip01_pelvis
{
	OFFSET -0.141780 111.560104 -53.453648
	CHANNELS 6 Xposition Yposition Zposition Xrotation Yrotation Zrotation
	JOINT bip01_l_thigh
	{
		OFFSET -12.581326 0.000023 0.838757
		CHANNELS 3 Xrotation Yrotation Zrotation
		JOINT bip01_l_calf
		{
			OFFSET -5.405050 -43.060066 12.568863
			CHANNELS 3 Xrotation Yrotation Zrotation
			JOINT bip01_l_foot
			{
				OFFSET -6.378141 -25.639313 -28.000755
				CHANNELS 3 Xrotation Yrotation Zrotation
				JOINT bip01_l_toe0
				{
					OFFSET -1.312191 -43.345943 -5.410645
					CHANNELS 3 Xrotation Yrotation Zrotation
					End Site
					{
						OFFSET 0.668312 -0.011212 0.027710
					}
				}
			}
		}
	}
	JOINT bip01_r_thigh
	{
		OFFSET 12.581315 -0.000053 -0.838764
		CHANNELS 3 Xrotation Yrotation Zrotation
		JOINT bip01_r_calf
		{
			OFFSET 7.025425 -43.060097 11.740181
			CHANNELS 3 Xrotation Yrotation Zrotation
			JOINT bip01_r_foot
			{
				OFFSET 2.604660 -25.639347 -28.599602
				CHANNELS 3 Xrotation Yrotation Zrotation
				JOINT bip01_r_toe0
				{
					OFFSET 0.582125 -43.345810 -5.536972
					CHANNELS 3 Xrotation Yrotation Zrotation
					End Site
					{
						OFFSET 0.658720 0.011207 -0.116180
					}
				}
			}
		}
	}
	JOINT bip01_spine
	{
		OFFSET 1.130847 -10.257637 16.963192
		CHANNELS 3 Xrotation Yrotation Zrotation
		JOINT bip01_spine1
		{
			OFFSET 2.125925 -0.408882 31.891911
			CHANNELS 3 Xrotation Yrotation Zrotation
			JOINT bip01_spine2
			{
				OFFSET 3.104555 -1.436646 46.949230
				CHANNELS 3 Xrotation Yrotation Zrotation
				JOINT bip01_neck
				{
					OFFSET 1.831697 12.621635 29.209831
					CHANNELS 3 Xrotation Yrotation Zrotation
					JOINT bip01_head
					{
						OFFSET 0.933028 14.642593 15.308128
						CHANNELS 3 Xrotation Yrotation Zrotation
						JOINT bip01_ponytail1
						{
							OFFSET 12.881245 30.917107 3.869919
							CHANNELS 3 Xrotation Yrotation Zrotation
							End Site
							{
								OFFSET -0.556711 0.315430 0.195229
							}
						}
						JOINT bip01_ponytail2
						{
							OFFSET -12.308470 31.163292 5.588448
							CHANNELS 3 Xrotation Yrotation Zrotation
							End Site
							{
								OFFSET -0.577699 -0.315430 -0.119598
							}
						}
						JOINT bone01
						{
							OFFSET -0.035753 10.693596 0.910164
							CHANNELS 3 Xrotation Yrotation Zrotation
							End Site
							{
								OFFSET -0.667642 0.000000 0.042305
							}
						}
						JOINT bone03
						{
							OFFSET -2.859410 10.011330 9.974838
							CHANNELS 3 Xrotation Yrotation Zrotation
							End Site
							{
								OFFSET 0.042301 0.000000 0.667641
							}
						}
						JOINT bone05
						{
							OFFSET 4.144515 10.011345 9.531006
							CHANNELS 3 Xrotation Yrotation Zrotation
							End Site
							{
								OFFSET 0.042301 0.000000 0.667641
							}
						}
					}
					JOINT bip01_l_clavicle
					{
						OFFSET -6.817371 -1.737137 -4.124603
						CHANNELS 3 Xrotation Yrotation Zrotation
						JOINT bip01_l_upperarm
						{
							OFFSET -13.915021 0.119522 7.203735
							CHANNELS 3 Xrotation Yrotation Zrotation
							JOINT bip01_l_forearm
							{
								OFFSET 0.900768 -49.360191 -24.691143
								CHANNELS 3 Xrotation Yrotation Zrotation
								JOINT bip01_l_hand
								{
									OFFSET 5.453267 -54.192162 0.261513
									CHANNELS 3 Xrotation Yrotation Zrotation
									End Site
									{
										OFFSET -0.048247 0.019447 -0.666954
									}
								}
							}
						}
					}
					JOINT bip01_r_clavicle
					{
						OFFSET 6.291911 -1.668388 -4.989365
						CHANNELS 3 Xrotation Yrotation Zrotation
						JOINT bip01_r_upperarm
						{
							OFFSET 14.738678 0.269737 5.313599
							CHANNELS 3 Xrotation Yrotation Zrotation
							JOINT bip01_r_forearm
							{
								OFFSET -4.170362 -49.360199 -24.353104
								CHANNELS 3 Xrotation Yrotation Zrotation
								JOINT bip01_r_hand
								{
									OFFSET -5.370342 -54.192158 0.983074
									CHANNELS 3 Xrotation Yrotation Zrotation
									End Site
									{
										OFFSET 0.040714 -0.019448 0.667458
									}
								}
							}
						}
					}
				}
			}
		}
	}
	JOINT bip01_tail
	{
		OFFSET -1.140240 5.694984 -17.420544
		CHANNELS 3 Xrotation Yrotation Zrotation
		JOINT bip01_tail1
		{
			OFFSET -0.799711 -16.655739 -11.995483
			CHANNELS 3 Xrotation Yrotation Zrotation
			JOINT bip01_tail2
			{
				OFFSET -0.560408 -49.655807 -8.404999
				CHANNELS 3 Xrotation Yrotation Zrotation
				End Site
				{
					OFFSET -0.667499 0.000004 0.044495
				}
			}
		}
	}
}
MOTION
Frames: 4
Frame Time: 0.041667
-0.437123 79.873520 55.562305 -16.998367 -0.835246 1.618092 -34.143614 -10.603817 -16.099039 60.341989 -10.095770 -0.047980 -35.493601 25.190569 4.861929 21.943378 -10.193101 8.398699 -6.840767 -5.257563 7.141791 60.556485 6.205995 -6.571424 -43.043852 -16.131387 -2.528967 8.080716 16.557610 -8.496524 10.792197 -13.518799 6.704038 21.728189 1.464054 -18.070333 34.134861 4.750994 0.875326 -23.561335 0.661452 -4.925140 -22.910748 1.798138 28.418491 19.833104 36.128941 -34.661055 -344.980888 -37.296682 -336.821927 -4.542990 -0.129644 0.148828 0.004077 0.003789 -0.004770 -0.002727 0.000244 0.003163 28.582571 -19.489187 9.681917 22.326592 14.504882 -28.349894 -68.852842 -11.344651 5.089275 -2.818161 -30.247722 8.162010 23.836324 6.930093 0.201875 2.907969 -39.307879 1.558622 -99.581713 7.450024 4.960319 50.074210 1.283374 34.196916 72.354106 -1.089137 16.389391 9.306451 -0.445442 -11.860923 -46.977969 13.075755 7.288192 
-0.437155 78.315796 49.100170 -14.162974 2.682404 2.654360 -47.192881 -11.827448 -22.459793 60.224510 -10.078136 -0.058254 -27.318231 24.083734 5.954197 23.430990 -7.538989 4.566396 4.340797 -6.981112 8.319911 67.788439 6.389982 -7.681571 -78.279070 -12.474170 -6.990804 31.289465 12.496227 -14.635246 9.647843 -17.706518 6.789891 16.046877 0.858558 -18.213017 31.490949 3.133782 1.436902 -17.177557 2.872936 -5.633866 -22.347156 5.140532 31.048896 9.803046 32.152965 -26.641733 -349.760764 -32.558979 -337.376320 -4.479538 -0.129396 0.144781 0.004077 0.003790 -0.004769 -0.002726 0.000245 0.003160 23.057535 -21.776113 11.472131 26.931332 16.835656 -30.360850 -74.490460 -12.384636 4.841174 3.775084 -27.598875 5.639753 17.530792 4.501839 1.673241 5.805221 -34.343793 5.451828 -101.745927 7.471012 5.180360 54.616412 4.902577 29.567339 81.466193 -2.475933 19.625615 7.247189 -1.799107 -13.985893 -48.154814 10.430421 8.146881 
-0.437285 77.342224 42.099552 -11.337717 6.715472 3.641853 -59.000076 -12.454923 -28.926527 57.988470 -9.738354 -0.246814 -18.308459 22.308704 5.878488 25.131340 -5.219323 0.595015 17.231838 -7.517013 9.543835 67.297758 6.381922 -7.605607 -106.987591 -7.228515 -8.450129 63.113011 5.223125 -21.319005 8.054190 -22.474980 6.707265 9.170998 -0.088859 -18.254195 28.079616 1.095060 2.059190 -12.239229 6.653529 -6.649516 -17.580109 6.481240 30.313998 0.028814 27.398230 -19.247142 -354.823901 -28.591199 -337.284085 -4.303685 -0.128731 0.133565 0.004080 0.003789 -0.004770 -0.002726 0.000245 0.003163 19.498472 -25.551519 13.782885 30.110998 21.472469 -31.190616 -76.771326 -12.796348 4.711387 11.171430 -24.455731 1.937715 12.969930 0.527738 3.380302 9.335869 -25.791684 10.464761 -100.102563 7.455831 5.013203 57.362715 8.096639 20.956094 85.087150 -3.395744 22.240059 7.449925 -2.963827 -15.001553 -48.257851 6.630193 8.581793 
-0.437348 76.952805 34.021885 -8.673361 11.127679 4.528871 -69.093586 -12.736983 -35.264250 53.958426 -9.107333 -0.552317 -9.434118 19.798678 5.272333 26.927534 -3.127147 -3.510730 26.032038 -8.049528 11.136757 63.050678 6.285190 -6.951617 -122.515180 -3.042629 -8.127737 80.170076 -0.015656 -21.784502 6.161619 -27.478934 6.351535 2.106316 -1.363229 -18.317956 24.549286 -1.217749 2.615685 -7.139953 11.491427 -8.184741 -12.623462 6.304628 27.582283 -8.768166 22.416384 -12.915619 -359.917938 -25.717863 -336.853592 -4.086281 0.166156 0.293505 0.004078 0.003789 -0.004770 -0.002727 0.000244 0.003163 16.382789 -30.506736 16.468868 31.310441 27.929489 -30.635338 -76.341147 -12.719155 4.737146 19.118236 -22.028981 -2.369302 8.655617 -4.682320 5.116715 11.228021 -16.771591 15.310885 -95.008368 7.378614 4.498838 59.328574 10.465535 11.102816 80.399236 -4.853678 23.043508 17.114233 -4.070252 -12.256322 -47.217849 2.261661 8.551722 
